name C:\Users\u0101727\Documents\MyRepositories\upper-imu-dc\Results\main_mocap_tracking\Case_6\FLX01_linearAccelerations.mot
datacolumns 4
datarows 105
range 5.01000000 6.05000000
endheader 
time	radius_imu_x	radius_imu_y	radius_imu_z	
          5.01000000	         -2.99588458	          5.32984314	          9.35647535	
          5.02000000	         -2.71125075	          5.38942047	          9.37534645	
          5.03000000	         -2.39562638	          5.39128869	          9.39277065	
          5.04000000	         -2.14922408	          5.35166743	          9.39346692	
          5.05000000	         -2.00083780	          5.30489908	          9.36631661	
          5.06000000	         -1.93202833	          5.29524997	          9.30603163	
          5.07000000	         -1.90896296	          5.35579923	          9.21130328	
          5.08000000	         -1.86961012	          5.49074967	          9.08545611	
          5.09000000	         -1.77819538	          5.67859323	          8.93143983	
          5.10000000	         -1.69890711	          5.88199817	          8.74495528	
          5.11000000	         -1.74837266	          6.05877131	          8.51898455	
          5.12000000	         -1.97971731	          6.17917271	          8.25614493	
          5.13000000	         -2.33728822	          6.24205384	          7.97186067	
          5.14000000	         -2.69527198	          6.27593209	          7.68695549	
          5.15000000	         -2.92410267	          6.32285332	          7.42053827	
          5.16000000	         -2.94056773	          6.41642715	          7.18761525	
          5.17000000	         -2.74100924	          6.56837531	          6.99822794	
          5.18000000	         -2.40635127	          6.76440830	          6.85623456	
          5.19000000	         -2.04689908	          6.96407951	          6.75820784	
          5.20000000	         -1.75116230	          7.11605287	          6.69233452	
          5.21000000	         -1.57406947	          7.19111163	          6.64368208	
          5.22000000	         -1.51045913	          7.20121754	          6.60704641	
          5.23000000	         -1.50190674	          7.18544100	          6.58838211	
          5.24000000	         -1.49922893	          7.18155764	          6.59275332	
          5.25000000	         -1.48944049	          7.20858780	          6.61754107	
          5.26000000	         -1.47623879	          7.27033690	          6.65512782	
          5.27000000	         -1.47269261	          7.36340779	          6.69508894	
          5.28000000	         -1.51017861	          7.48133484	          6.72739560	
          5.29000000	         -1.62747624	          7.61318400	          6.74503384	
          5.30000000	         -1.83982755	          7.74701860	          6.74498464	
          5.31000000	         -2.12987518	          7.87640242	          6.72632106	
          5.32000000	         -2.45336665	          8.00208108	          6.68874984	
          5.33000000	         -2.73495233	          8.12813620	          6.63379151	
          5.34000000	         -2.88545526	          8.25918728	          6.56548987	
          5.35000000	         -2.85009011	          8.39868512	          6.48897317	
          5.36000000	         -2.64514919	          8.54293445	          6.40905497	
          5.37000000	         -2.35519749	          8.67766009	          6.32918935	
          5.38000000	         -2.08825832	          8.78657828	          6.24960504	
          5.39000000	         -1.91379763	          8.86241163	          6.16686211	
          5.40000000	         -1.84333820	          8.90660698	          6.07792236	
          5.41000000	         -1.87088818	          8.92417669	          5.98337295	
          5.42000000	         -1.99484034	          8.92111571	          5.88419791	
          5.43000000	         -2.19291256	          8.90403847	          5.77864324	
          5.44000000	         -2.42392731	          8.88580903	          5.66423696	
          5.45000000	         -2.65375676	          8.88545217	          5.53843822	
          5.46000000	         -2.85406048	          8.91771168	          5.39908547	
          5.47000000	         -2.99991792	          8.98197075	          5.24381345	
          5.48000000	         -3.08157517	          9.06516567	          5.07092769	
          5.49000000	         -3.10819498	          9.14749037	          4.88007045	
          5.50000000	         -3.09854593	          9.21034981	          4.67295972	
          5.51000000	         -3.06827036	          9.24586979	          4.45406224	
          5.52000000	         -3.02388617	          9.26086160	          4.23102251	
          5.53000000	         -2.96532970	          9.27179757	          4.01462337	
          5.54000000	         -2.88776100	          9.29498197	          3.81721910	
          5.55000000	         -2.78297178	          9.33932555	          3.65021083	
          5.56000000	         -2.64445760	          9.40600431	          3.52198430	
          5.57000000	         -2.46971318	          9.49262559	          3.43553162	
          5.58000000	         -2.25908767	          9.59800253	          3.38719821	
          5.59000000	         -2.01868362	          9.72039107	          3.36837634	
          5.60000000	         -1.76317838	          9.85093555	          3.36854694	
          5.61000000	         -1.51263114	          9.97202821	          3.37717977	
          5.62000000	         -1.28565429	         10.06612340	          3.38389278	
          5.63000000	         -1.09364478	         10.12614999	          3.37827962	
          5.64000000	         -0.93775449	         10.15517789	          3.35257829	
          5.65000000	         -0.80892845	         10.16048705	          3.30480033	
          5.66000000	         -0.69356357	         10.15107041	          3.23766263	
          5.67000000	         -0.58119118	         10.13804696	          3.15547548	
          5.68000000	         -0.46744041	         10.13298388	          3.06277567	
          5.69000000	         -0.35043232	         10.14560613	          2.96418887	
          5.70000000	         -0.22880999	         10.17809916	          2.86399442	
          5.71000000	         -0.10115372	         10.22112749	          2.76562985	
          5.72000000	          0.03594388	         10.25826820	          2.67167789	
          5.73000000	          0.18521834	         10.27699089	          2.58422314	
          5.74000000	          0.34139838	         10.27670780	          2.50575663	
          5.75000000	          0.48914131	         10.26739322	          2.44104509	
          5.76000000	          0.60901709	         10.26248580	          2.39814281	
          5.77000000	          0.68434381	         10.27098525	          2.38631064	
          5.78000000	          0.70033864	         10.29303454	          2.41053021	
          5.79000000	          0.63938615	         10.32011295	          2.46848205	
          5.80000000	          0.48310668	         10.33947655	          2.55017231	
          5.81000000	          0.21621945	         10.34039684	          2.63676293	
          5.82000000	         -0.17045419	         10.31575815	          2.70384091	
          5.83000000	         -0.67122053	         10.26279777	          2.73056469	
          5.84000000	         -1.25201845	         10.18193635	          2.70873546	
          5.85000000	         -1.85481983	         10.08123337	          2.64269542	
          5.86000000	         -2.41298851	          9.97199204	          2.54750856	
          5.87000000	         -2.86242022	          9.87102401	          2.44592278	
          5.88000000	         -3.15684447	          9.80156144	          2.35884828	
          5.89000000	         -3.28544460	          9.78129295	          2.29444752	
          5.90000000	         -3.27119238	          9.81198579	          2.24873759	
          5.91000000	         -3.15989621	          9.87557241	          2.20955668	
          5.92000000	         -3.00441633	          9.93405632	          2.17101672	
          5.93000000	         -2.82318647	          9.95776737	          2.14288239	
          5.94000000	         -2.61028693	          9.95071155	          2.12287651	
          5.95000000	         -2.38312933	          9.92944529	          2.09649071	
          5.96000000	         -2.17278080	          9.90460036	          2.06079886	
          5.97000000	         -1.99128828	          9.88183652	          2.03109901	
          5.98000000	         -1.84022979	          9.86208970	          2.02447140	
          5.99000000	         -1.74346108	          9.84463662	          2.03899492	
          6.00000000	         -1.73256139	          9.82999073	          2.05748538	
          6.01000000	         -1.80564376	          9.81745277	          2.06346387	
          6.02000000	         -1.91896293	          9.80422368	          2.05166782	
          6.03000000	         -1.99949579	          9.79519934	          2.03429713	
          6.04000000	         -2.00925878	          9.80589388	          2.01249427	
          6.05000000	         -1.98795442	          9.84305318	          1.96213501	
